# xmcd CD database file
#
# Track frame offsets:
#	150
#	29537
#	53087
#	77087
#	90587
#	114587
#	145712
#	164012
#	180062
#	191687
#	211712
#	228812
#	241562
#	259262
#	281537
#
# Disc length: 3789 seconds
#
# Revision: 0
# Processed by: cddbd v1.5PL3 Copyright (c) Steve Scherf et al.
# Submitted via: CDex 1.51
#
DISCID=bb0ecb0f
DTITLE=Ralph Sutton and Bernd Lhotzky - Stridin' High
DYEAR=1998
DGENRE=Jazz
TTITLE0=Keepin' Out of Mischief Now
TTITLE1=Jeepers Creepers
TTITLE2=Love Lies
TTITLE3=Drop Me Off in Harlem
TTITLE4=Until the Real Thing Comes Along
TTITLE5=A Porter's Love Song to a Chambermaid
TTITLE6=Lover
TTITLE7=In the Dark
TTITLE8=Lulu's Back in Town
TTITLE9=Taking a Chance on Love
TTITLE10=Clothes Line Ballet
TTITLE11=Lush Life
TTITLE12=I'm Gonna Sit Right Down and Write Myself a Letter
TTITLE13=Indiana
TTITLE14=Ralph's Very Special Bonus Track
EXTD=YEAR: 1998
EXTT0=
EXTT1=
EXTT2=
EXTT3=
EXTT4=
EXTT5=
EXTT6=
EXTT7=
EXTT8=
EXTT9=
EXTT10=
EXTT11=
EXTT12=
EXTT13=
EXTT14=
PLAYORDER=
